# xmcd
#
# Track frame offsets: 
#        150
#        22020
#        39411
#        66349
#        85385
#        103033
#        130942
#        143564
#        164655
#        179232
#
# Disc length: 2924 seconds
#
# Revision: 1
# Processed by: cddbd v1.5.2PL0 Copyright (c) Steve Scherf et al.
# Submitted via: ExactAudioCopy v1.3
#
DISCID=920b6a0a
DTITLE=Tinsley Ellis - Winning Hand
DYEAR=2018
DGENRE=Blues Rock
TTITLE0=Sound Of A Broken Man
TTITLE1=Nothing But Fine
TTITLE2=Gamblin' Man
TTITLE3=I Got Mine
TTITLE4=Kiss This World
TTITLE5=Autumn Run
TTITLE6=Satisfied
TTITLE7=Don't Turn Off The Light
TTITLE8=Dixie Lullaby
TTITLE9=Saving Grace
EXTD=
EXTT0=
EXTT1=
EXTT2=
EXTT3=
EXTT4=
EXTT5=
EXTT6=
EXTT7=
EXTT8=
EXTT9=
PLAYORDER=
